<svg id="Layer_1" enable-background="new 0 0 512 512" height="512" viewBox="0 0 512 512" width="512" xmlns="http://www.w3.org/2000/svg"><g><path d="m238.489 0c-4.142 0-7.5 3.357-7.5 7.5v141.979c0 4.143 3.358 7.5 7.5 7.5s7.5-3.357 7.5-7.5v-141.979c0-4.143-3.358-7.5-7.5-7.5z" fill="#d8d7f5"/><path d="m237.325 105.231s22.344-17.928 33.12-12.35 0 46.612 0 46.612h-33.12z" fill="#d8d7f5"/><g><g><path d="m306.522 262.516h-68.249v-138.694s25.723 0 49.218 12.136c11.731 6.059 19.03 18.22 19.03 31.405v95.153z" fill="#d8d7f5"/></g><path d="m287.492 135.958c-23.496-12.136-49.219-12.136-49.219-12.136v7.994c3.07 1.195 6.163 2.564 9.219 4.142 11.731 6.059 19.03 18.22 19.03 31.405v95.153h40v-95.153c0-13.185-7.299-25.346-19.03-31.405z" fill="#cfcdf5"/><path d="m306.522 180.678c-28.142-31.267-68.249-31.2-68.249-31.2v-25.656s25.868 0 49.261 12.08c11.716 6.05 18.987 18.214 18.987 31.382v13.394z" fill="#f2f2ff"/></g><g><g><path d="m306.522 350.124h-68.249v-138.695s25.723 0 49.218 12.136c11.731 6.059 19.03 18.22 19.03 31.405v95.154z" fill="#d8d7f5"/></g><g><path d="m306.522 350.124h-68.249v-138.695s25.723 0 49.218 12.136c11.731 6.059 19.03 18.22 19.03 31.405v95.154z" fill="#d8d7f5"/></g><path d="m287.492 223.565c-23.496-12.136-49.219-12.136-49.219-12.136v7.994c3.07 1.195 6.163 2.564 9.219 4.142 11.731 6.059 19.03 18.22 19.03 31.405v95.153h40v-95.153c0-13.185-7.299-25.345-19.03-31.405z" fill="#cfcdf5"/><path d="m306.522 268.285c-28.142-31.267-68.249-31.2-68.249-31.2v-25.656s25.868 0 49.261 12.08c11.716 6.05 18.987 18.214 18.987 31.382v13.394z" fill="#f2f2ff"/></g><g><g><path d="m306.522 437.731h-68.249v-138.694s25.723 0 49.218 12.136c11.731 6.059 19.03 18.22 19.03 31.405v95.153z" fill="#d8d7f5"/></g><path d="m287.492 311.173c-23.496-12.136-49.219-12.136-49.219-12.136v7.994c3.07 1.195 6.163 2.564 9.219 4.142 11.731 6.059 19.03 18.22 19.03 31.405v95.153h40v-95.153c0-13.185-7.299-25.346-19.03-31.405z" fill="#cfcdf5"/><path d="m306.522 355.893c-28.142-31.267-68.249-31.2-68.249-31.2v-25.656s25.868 0 49.261 12.08c11.716 6.05 18.987 18.214 18.987 31.382v13.394z" fill="#f2f2ff"/></g><g><g><g><path d="m238.489 504.5h-33.415v-398.478c0-14.106 2.939-28.057 8.628-40.965 3.096-7.024 13.062-7.024 16.158 0 5.69 12.908 8.628 26.859 8.628 40.965v398.478z" fill="#f2f2ff"/></g></g></g><g><g><path d="m306.522 504.5h-68.249l-32.796-.176v-94.324l32.796-23.356s25.723 0 49.218 12.136c11.731 6.059 19.03 18.22 19.03 31.405v74.315z" fill="#d8d7f5"/></g><path d="m287.492 398.78c-23.496-12.136-49.219-12.136-49.219-12.136l9.219 12.136c11.731 6.059 19.03 18.22 19.03 31.405v74.315h40v-74.315c0-13.185-7.299-25.346-19.03-31.405z" fill="#cfcdf5"/><path d="m306.522 443.5c-28.142-31.267-68.249-31.2-68.249-31.2l-32.796-.129v-25.527h32.796s25.868 0 49.261 12.08c11.716 6.05 18.987 18.214 18.987 31.382v13.394z" fill="#f2f2ff"/></g><path d="m419.857 497h-327.714c-4.142 0-7.5 3.357-7.5 7.5s3.358 7.5 7.5 7.5h327.714c4.142 0 7.5-3.357 7.5-7.5s-3.358-7.5-7.5-7.5z" fill="#f2f2ff"/></g></svg>