<svg id="Layer_1" height="512" viewBox="0 0 512 512" width="512" xmlns="http://www.w3.org/2000/svg"><g><g><path d="m480 64h-448c-8.837 0-16 7.163-16 16v352c0 8.837 7.163 16 16 16h448c8.837 0 16-7.163 16-16v-352c0-8.837-7.163-16-16-16z" fill="#463c4b"/></g><g><path d="m359.683 448c20.152-23.72 32.317-54.437 32.317-88 0-75.111-60.889-136-136-136s-136 60.889-136 136c0 33.563 12.165 64.28 32.317 88z" fill="#555a6e"/></g><g><g><path d="m217.655 448h76.694c21.82-9.511 39.802-26.993 49.69-49.686 1.515-3.475.382-7.536-2.713-9.726-3.094-2.19-7.301-1.907-10.075.677-7.428 6.923-17.106 10.735-27.251 10.735-22.056 0-40-17.944-40-40s17.944-40 40-40c10.145 0 19.823 3.812 27.252 10.734 2.774 2.584 6.981 2.867 10.075.677 3.095-2.19 4.228-6.251 2.713-9.726-15.27-35.042-49.828-57.685-88.04-57.685-52.935 0-96 43.065-96 96 0 39.309 23.752 73.17 57.655 88z" fill="#a5c3dc"/></g><g><path d="m168 368c-4.418 0-8-3.582-8-8 0-52.935 43.065-96 96-96 4.418 0 8 3.582 8 8s-3.582 8-8 8c-44.112 0-80 35.888-80 80 0 4.418-3.582 8-8 8z" fill="#d7e6f0"/></g><g><circle cx="244" cy="316" fill="#d7e6f0" r="12"/></g><g><circle cx="208" cy="392" fill="#d7e6f0" r="16"/></g><g><circle cx="248" cy="416" fill="#d7e6f0" r="8"/></g></g><g><path d="m445.295 416c-61.048 0-120.947-16.591-173.295-48-52.348-31.409-112.248-48-173.295-48h-82.705v112c0 8.836 7.163 16 16 16h448c8.836 0 16-7.164 16-16v-16z" fill="#5faa46"/><g><path d="m339.076 415.629c-26.317-8.308-51.655-19.717-75.309-33.909-49.849-29.91-106.927-45.72-165.062-45.72h-82.705v-16h82.705c61.034 0 120.958 16.598 173.295 48 22.58 13.549 46.769 24.44 71.893 32.371z" fill="#91c83c"/></g></g><g><path d="m32 448h34.705c61.047 0 120.947-16.591 173.295-48 52.348-31.409 112.248-48 173.295-48h82.705v80c0 8.837-7.163 16-16 16z" fill="#4b8c41"/></g><g><path d="m96 128c-4.418 0-8-3.582-8-8 0-4.418-3.582-8-8-8-4.418 0-8 3.582-8 8 0 4.418-3.582 8-8 8-4.418 0-8 3.582-8 8 0 4.418 3.582 8 8 8 4.418 0 8 3.582 8 8 0 4.418 3.582 8 8 8 4.418 0 8-3.582 8-8 0-4.418 3.582-8 8-8 4.418 0 8-3.582 8-8 0-4.418-3.582-8-8-8z" fill="#faa019"/></g><g><path d="m408 256c-4.418 0-8-3.582-8-8 0-4.418-3.582-8-8-8-4.418 0-8 3.582-8 8 0 4.418-3.582 8-8 8-4.418 0-8 3.582-8 8 0 4.418 3.582 8 8 8 4.418 0 8 3.582 8 8 0 4.418 3.582 8 8 8 4.418 0 8-3.582 8-8 0-4.418 3.582-8 8-8 4.418 0 8-3.582 8-8 0-4.418-3.582-8-8-8z" fill="#faa019"/></g><g><path d="m456 144c-4.418 0-8-3.582-8-8 0-4.418-3.582-8-8-8-4.418 0-8 3.582-8 8 0 4.418-3.582 8-8 8-4.418 0-8 3.582-8 8 0 4.418 3.582 8 8 8 4.418 0 8 3.582 8 8 0 4.418 3.582 8 8 8 4.418 0 8-3.582 8-8 0-4.418 3.582-8 8-8 4.418 0 8-3.582 8-8 0-4.418-3.582-8-8-8z" fill="#ffd205"/></g><g><path d="m248 192c-4.418 0-8-3.582-8-8 0-4.418-3.582-8-8-8-4.418 0-8 3.582-8 8 0 4.418-3.582 8-8 8-4.418 0-8 3.582-8 8 0 4.418 3.582 8 8 8 4.418 0 8 3.582 8 8 0 4.418 3.582 8 8 8 4.418 0 8-3.582 8-8 0-4.418 3.582-8 8-8 4.418 0 8-3.582 8-8 0-4.418-3.582-8-8-8z" fill="#ffd205"/></g><g><circle cx="72" cy="280" fill="#ffd205" r="8"/></g><g><circle cx="184" cy="88" fill="#faa019" r="8"/></g><g><circle cx="360" cy="136" fill="#ffd205" r="8"/></g></g></svg>