<svg height="496pt" viewBox="0 0 496 496" width="496pt" xmlns="http://www.w3.org/2000/svg"><path d="m488 248c0 132.546875-107.453125 240-240 240s-240-107.453125-240-240 107.453125-240 240-240 240 107.453125 240 240zm0 0" fill="#85d3c1"/><path d="m279.679688 12.558594c-2.238282 15.519531-15.519532 27.441406-31.679688 27.441406s-29.441406-11.921875-31.679688-27.441406c8.238282-2.480469 16.960938-3.917969 25.917969-4.398438 1.921875-.160156 3.839844-.160156 5.761719-.160156s3.839844 0 5.761719.160156c8.957031.480469 17.679687 1.917969 25.917969 4.398438zm0 0" fill="#f9d48a"/><path d="m309.359375 26.320312c-3.839844 12.960938-11.757813 24.320313-22.320313 32.398438-.160156.160156-.320312.242188-.480468.320312-10.71875 8.160157-24.078125 12.960938-38.558594 12.960938s-27.839844-4.800781-38.558594-12.960938c-.160156-.078124-.320312-.160156-.480468-.320312-10.5625-8.078125-18.480469-19.4375-22.320313-32.398438 9.039063-5.921874 19.039063-10.640624 29.679687-13.761718 2.238282 15.519531 15.519532 27.441406 31.679688 27.441406s29.441406-11.921875 31.679688-27.441406c10.640624 3.121094 20.640624 7.839844 29.679687 13.761718zm0 0" fill="#ff958a"/><path d="m296 56c8.800781 0 16 7.199219 16 16s-7.199219 16-16 16-16-7.199219-16-16c0-5.28125 2.558594-10 6.558594-12.960938.160156-.078124.320312-.160156.480468-.320312 2.5625-1.757812 5.679688-2.71875 8.960938-2.71875zm0 0" fill="#f5f7fa"/><path d="m209.441406 59.039062c4 2.960938 6.558594 7.679688 6.558594 12.960938 0 8.800781-7.199219 16-16 16s-16-7.199219-16-16 7.199219-16 16-16c3.28125 0 6.398438.960938 8.960938 2.71875.160156.160156.320312.242188.480468.320312zm0 0" fill="#f5f7fa"/><path d="m248 72v56l-13.199219-8.800781c-7.039062-4.71875-15.359375-7.199219-23.839843-7.199219-11.839844 0-22.5625 4.800781-30.320313 12.640625-5.359375 5.359375-9.359375 12.078125-11.28125 19.679687l-1.359375-.320312c-17.679688 0-32 14.320312-32 32v-56c0-30.878906 12.558594-58.878906 32.800781-79.199219 5.4375-5.359375 11.359375-10.242187 17.839844-14.480469 3.839844 12.960938 11.757813 24.320313 22.320313 32.398438-2.5625-1.757812-5.679688-2.71875-8.960938-2.71875-8.800781 0-16 7.199219-16 16s7.199219 16 16 16 16-7.199219 16-16c0-5.28125-2.558594-10-6.558594-12.960938 10.71875 8.160157 24.078125 12.960938 38.558594 12.960938zm0 0" fill="#f9d48a"/><path d="m360 144.800781v31.199219c0-2.160156-.238281-4.320312-.640625-6.480469-2.960937-15.199219-17.28125-25.519531-32.71875-25.519531h-.082031c-4.878906-18.398438-21.679688-32-41.519532-32-8.480468 0-16.800781 2.480469-23.839843 7.199219l-13.199219 8.800781v-56c14.480469 0 27.839844-4.800781 38.558594-12.960938-4 2.960938-6.558594 7.679688-6.558594 12.960938 0 8.800781 7.199219 16 16 16s16-7.199219 16-16-7.199219-16-16-16c-3.28125 0-6.398438.960938-8.960938 2.71875 10.5625-8.078125 18.480469-19.4375 22.320313-32.398438 30.480469 20 50.640625 54.480469 50.640625 93.679688zm0 0" fill="#f9d48a"/><path d="m360 144.800781c18.238281 3.679688 32 19.839844 32 39.199219 0 4.640625-.960938 9.039062-2.398438 13.199219 15.679688 7.921875 26.398438 24.082031 26.398438 42.800781 0 26.480469-21.519531 48-48 48-5.039062 0-9.921875-.800781-14.480469-2.238281-5.199219 8-13.199219 14-22.558593 16.636719-13.921876-4.238282-28.402344-6.398438-42.960938-6.398438v-24l-1.199219-2.078125c6.558594-3.601563 12.480469-8.082031 17.757813-13.363281 12.722656-12.71875 21.203125-29.679688 23.042968-48.558594h.398438c17.679688 0 32-14.320312 32-32zm0 0" fill="#f9d48a"/><path d="m272 368v118.878906c-7.921875.722656-15.921875 1.121094-24 1.121094s-16.078125-.398438-24-1.121094v-118.878906c0-4.398438 3.601562-8 8-8h32c4.398438 0 8 3.601562 8 8zm0 0" fill="#ff958a"/><path d="m330.960938 302.398438c1.277343.402343 2.558593.800781 3.839843 1.203124l1.199219.398438-1.601562 3.199219-3.117188 6.242187c-12.402344 24.878906-33.519531 44.238282-59.28125 54.558594 0-4.398438-3.601562-8-8-8h-16c20.640625-15.441406 34.800781-38 39.839844-63.199219l.160156-.800781c14.558594 0 29.039062 2.160156 42.960938 6.398438zm0 0" fill="#ff958a"/><path d="m248 360h-16c-4.398438 0-8 3.601562-8 8-25.761719-10.320312-46.878906-29.679688-59.28125-54.558594l-3.117188-6.242187-1.601562-3.199219 1.199219-.398438c15.121093-5.042968 30.878906-7.601562 46.800781-7.601562l.160156.800781c5.039063 25.199219 19.199219 47.757813 39.839844 63.199219zm0 0" fill="#ff958a"/><path d="m368 455.761719c-28.71875 16.71875-61.28125 27.597656-96 31.117187v-118.878906c25.761719-10.320312 46.878906-29.679688 59.28125-54.558594l3.117188-6.242187 1.601562.800781 43.679688 10.878906c21.359374 5.359375 36.320312 24.5625 36.320312 46.5625v50.558594l1.679688 1.679688c-14.800782 14.800781-31.441407 27.601562-49.679688 38.082031zm0 0" fill="#f9d48a"/><path d="m164.71875 313.441406c12.402344 24.878906 33.519531 44.238282 59.28125 54.558594v118.878906c-34.71875-3.519531-67.28125-14.398437-96-31.117187-18.238281-10.480469-34.878906-23.28125-49.679688-38.082031l1.679688-1.679688v-50.558594c0-22 14.960938-41.203125 36.320312-46.5625l43.679688-10.878906 1.601562-.800781zm0 0" fill="#f9d48a"/><path d="m288 272v24l-.160156.800781c-5.039063 25.199219-19.199219 47.757813-39.839844 63.199219-20.640625-15.441406-34.800781-38-39.839844-63.199219l-.160156-.800781v-24l1.199219-2.078125c11.519531 6.476563 24.722656 10.078125 38.800781 10.078125s27.28125-3.601562 38.800781-10.078125zm0 0" fill="#f5f7fa"/><path d="m326.640625 144c15.4375 0 29.757813 10.320312 32.71875 25.519531.402344 2.160157.640625 4.320313.640625 6.480469 0 17.679688-14.320312 32-32 32h-.398438c.238282-2.640625.398438-5.28125.398438-8v-45.039062c0-3.839844-.480469-7.519532-1.441406-10.960938zm0 0" fill="#f5f7fa"/><path d="m248 128 13.199219-8.800781c7.039062-4.71875 15.359375-7.199219 23.839843-7.199219 19.839844 0 36.640626 13.601562 41.519532 32 .960937 3.441406 1.441406 7.121094 1.441406 10.960938v45.039062c0 2.71875-.160156 5.359375-.398438 8-1.839843 18.878906-10.320312 35.839844-23.042968 48.558594-5.277344 5.28125-11.199219 9.761718-17.757813 13.363281-11.519531 6.476563-24.722656 10.078125-38.800781 10.078125s-27.28125-3.601562-38.800781-10.078125c-22.320313-12.402344-38.160157-35.203125-40.800781-61.921875-.238282-2.640625-.398438-5.28125-.398438-8v-45.039062c0-3.679688.480469-7.28125 1.359375-10.640626 1.921875-7.601562 5.921875-14.320312 11.28125-19.679687 7.757813-7.839844 18.480469-12.640625 30.320313-12.640625 8.480468 0 16.800781 2.480469 23.839843 7.199219zm0 0" fill="#f5f7fa"/><path d="m168 154.960938v45.039062c0 2.71875.160156 5.359375.398438 8h-.398438c-17.679688 0-32-14.320312-32-32s14.320312-32 32-32l1.359375.320312c-.878906 3.359376-1.359375 6.960938-1.359375 10.640626zm0 0" fill="#f5f7fa"/><g fill="#232323"><path d="m216 176c0 4.417969-3.582031 8-8 8s-8-3.582031-8-8 3.582031-8 8-8 8 3.582031 8 8zm0 0"/><path d="m296 176c0 4.417969-3.582031 8-8 8s-8-3.582031-8-8 3.582031-8 8-8 8 3.582031 8 8zm0 0"/><path d="m240 160h16v16h-16zm0 0"/><path d="m248 248c17.648438 0 32-14.351562 32-32h-16c0 8.824219-7.175781 16-16 16s-16-7.175781-16-16h-16c0 17.648438 14.351562 32 32 32zm0 0"/><path d="m248 0c-136.742188 0-248 111.257812-248 248s111.257812 248 248 248 248-111.257812 248-248-111.257812-248-248-248zm232 248c0 57.585938-21.136719 110.296875-56 150.902344v-33.421875c0-25.746094-17.441406-48.082031-42.414062-54.328125l-33.625-8.410156c3.183593-2.300782 6.183593-4.871094 8.734374-7.894532 3.710938.769532 7.496094 1.152344 11.304688 1.152344 30.878906 0 56-25.121094 56-56 0-18.976562-9.441406-36.296875-25.023438-46.617188.6875-3.167968 1.023438-6.277343 1.023438-9.382812 0-20.480469-13.152344-38.441406-32-45.136719v-18.863281c0-35.9375-15.953125-68.144531-41.0625-90.152344 89.183594 32.367188 153.0625 117.929688 153.0625 218.152344zm-120 203.078125v.011719c-24.335938 13.46875-51.34375 22.671875-80 26.644531v-104.589844c25.296875-11.480469 45.945312-31.152343 58.425781-56.097656l.085938-.175781 39.191406 9.800781c17.832031 4.464844 30.296875 20.417969 30.296875 38.808594v50.28125c-9.953125 9.496093-20.71875 18.125-32.222656 25.75-1.074219-26.273438-6.539063-51.960938-16.34375-76.480469l-14.859375 5.945312c10.234375 25.582032 15.425781 52.535157 15.425781 80.101563zm-223.433594-86.054687c-9.804687 24.519531-15.269531 50.207031-16.34375 76.480468-11.503906-7.617187-22.269531-16.246094-32.222656-25.742187v-50.28125c0-18.382813 12.464844-34.34375 30.304688-38.808594l39.191406-9.800781.089844.175781c12.46875 24.945313 33.125 44.625 58.421874 56.097656v104.597657c-28.65625-3.972657-55.664062-13.175782-80-26.644532v-.007812c0-27.570313 5.191407-54.523438 15.433594-80.113282zm23.433594-210.039063v43.542969c-9.289062-3.3125-16-12.113282-16-22.527344 0-10.449219 6.742188-19.257812 16.078125-22.550781-.015625.511719-.078125 1.015625-.078125 1.535156zm3.535156-18.535156c-7.296875.824219-13.96875 3.535156-19.535156 7.75v-24.199219c0-32.761719 15.265625-61.984375 39.007812-81.0625 1.9375 4.03125 4.238282 7.832031 6.847657 11.390625-8.160157 3.839844-13.855469 12.070313-13.855469 21.671875 0 13.230469 10.769531 24 24 24 11.984375 0 21.863281-8.855469 23.632812-20.359375 5.238282 1.902344 10.726563 3.207031 16.367188 3.847656v33.558594l-.734375-.488281c-8.402344-5.597656-18.175781-8.558594-28.28125-8.558594-21.570313 0-40.007813 13.488281-47.449219 32.449219zm222.457032 67.871093c13.574218 6.855469 22.007812 20.527344 22.007812 35.679688 0 22.054688-17.945312 40-40 40-4.105469 0-8.167969-.632812-12.089844-1.871094l-5.796875-1.832031-3.320312 5.101563c-3.863281 5.945312-9.664063 10.320312-16.226563 12.65625-11.285156-3.214844-22.855468-5.132813-34.566406-5.734376v-14.664062c19.945312-13.039062 34.238281-33.929688 38.558594-58.257812 9.472656-1.566407 18.105468-6.4375 24.320312-13.984376 5.9375-7.199218 9.050782-16.15625 9.066406-25.414062h.054688v-19.65625c9.640625 5.609375 16 16.023438 16 27.65625 0 3.335938-.640625 6.785156-1.953125 10.527344l-2.320313 6.625zm-110.0625 153.121094c-2.074219-2.335937-4.800782-4.058594-7.914063-4.867187 12.480469-13.550781 21.542969-30.046875 26.320313-48.429688 10.25.464844 20.382812 2.046875 30.28125 4.726563l-.503907 1.015625c-10.410156 20.824219-27.378906 37.441406-48.183593 47.554687zm60.007812-203.714844c7.886719 2.9375 14.03125 9.417969 15.574219 17.351563 1.441406 7.355469-.335938 14.523437-4.984375 20.167969-2.800782 3.410156-6.480469 5.792968-10.527344 7.234375v-43.496094c0-.425781-.054688-.832031-.0625-1.257813zm16.0625-9.351562c-5.574219-4.136719-12.265625-6.894531-19.519531-7.878906-7.433594-18.992188-25.878907-32.496094-47.464844-32.496094-10.105469 0-19.878906 2.960938-28.28125 8.558594l-.734375.496094v-33.558594c5.648438-.640625 11.128906-1.945313 16.367188-3.847656 1.769531 11.496093 11.648437 20.351562 23.632812 20.351562 13.230469 0 24-10.769531 24-24 0-9.601562-5.695312-17.832031-13.855469-21.671875 2.609375-3.558594 4.917969-7.359375 6.847657-11.390625 23.742187 19.078125 39.007812 48.300781 39.007812 81.0625zm-152-80.375c4.40625 0 8 3.59375 8 8s-3.59375 8-8 8-8-3.59375-8-8 3.59375-8 8-8zm-3.449219-34.265625c4.617188-2.636719 9.457031-4.902344 14.480469-6.824219 6.007812 14.753906 20.464844 25.089844 36.96875 25.089844s30.960938-10.335938 36.960938-25.089844c5.023437 1.921875 9.863281 4.1875 14.480468 6.824219-8.65625 20.402344-28.921875 34.265625-51.441406 34.265625s-42.785156-13.863281-51.449219-34.265625zm99.449219 34.265625c4.40625 0 8 3.59375 8 8s-3.59375 8-8 8-8-3.59375-8-8 3.59375-8 8-8zm-26.414062-45.710938c-3.898438 8.125-12.1875 13.710938-21.585938 13.710938s-17.6875-5.585938-21.585938-13.710938c6.96875-1.480468 14.1875-2.289062 21.585938-2.289062s14.617188.808594 21.585938 2.289062zm-93.585938 136.695313c0-19.289063 15.695312-34.984375 34.984375-34.984375 6.9375 0 13.640625 2.03125 19.40625 5.871094l9.609375 6.410156v11.71875h16v-11.71875l9.609375-6.410156c5.765625-3.839844 12.46875-5.871094 19.40625-5.871094 19.289063 0 34.984375 15.695312 34.984375 34.984375v45.015625c0 39.695312-32.304688 72-72 72s-72-32.304688-72-72zm72 133.015625c11.296875 0 22.0625-2.214844 32-6.113281v13.320312c-4.265625 21.320313-15.585938 40.386719-32 54.441407-16.414062-14.046876-27.734375-33.121094-32-54.441407v-13.320312c9.9375 3.898437 20.703125 6.113281 32 6.113281zm-46.367188 16.144531c4.640626 18.175781 13.742188 34.757813 26.34375 48.429688-3.113281.816406-5.832031 2.53125-7.90625 4.867187-20.804687-10.113281-37.773437-26.730468-48.183593-47.554687l-.503907-1.015625c9.882813-2.679688 20.007813-4.261719 30.25-4.726563zm-32.570312-274.296875c-25.109375 22.007813-41.0625 54.214844-41.0625 90.152344v56c0 19.800781 14.503906 36.175781 33.425781 39.335938 4.300781 24.359374 18.613281 45.273437 38.574219 58.328124v14.664063c-14.046875.71875-27.910156 3.214844-41.304688 7.679687l-9.984374 3.328126 1.441406 2.886718-35.746094 8.9375c-24.964844 6.230469-42.40625 28.574219-42.40625 54.320313v33.421875c-34.863281-40.605469-56-93.316406-56-150.902344 0-100.222656 63.878906-185.785156 153.0625-218.152344zm62.9375 449.535156v-111.382812h32v111.382812c-5.296875.371094-10.617188.617188-16 .617188s-10.703125-.246094-16-.617188zm0 0"/></g></svg>