<svg id="Capa_1" enable-background="new 0 0 497 497" height="512" viewBox="0 0 497 497" width="512" xmlns="http://www.w3.org/2000/svg"><g><path d="m0 228.67c0-11.055 11.564-18.331 21.516-13.517 21.755 10.523 28.665 35.383 61.315 35.383 41.416 0 41.416-40 82.832-40 41.415 0 41.415 40 82.831 40s41.416-40 82.833-40c41.418 0 41.418 40 82.837 40 26.995 0 36.395-16.991 51.136-28.826 3.09-2.481 5.415-1.735 9.186-3.559 9.952-4.813 21.515 2.463 21.515 13.517l1 85.435-41.865 67.963-391.7.357-63.436-68.319z" fill="#90d8f9"/><g><path d="m475.485 215.152c-3.771 1.824-7.09 4.084-10.181 6.565 1.073 2.049 1.696 4.398 1.696 6.953v168.4l30-79.965v-88.435c0-11.055-11.563-18.331-21.515-13.518z" fill="#75cef9"/></g><path d="m482 338.771c-13.401 0-7.466-19.573-15.001-16.74-15.754 5.922-24.819 15.074-52.836 15.074-41.418 0-41.418-20-82.837-20-41.417 0-41.417 20-82.833 20-41.415 0-41.415-20-82.831-20s-41.416 20-82.832 20-41.416-20-82.831-20v79.965l104.801 66.946 368.275-16.98z" fill="#75cef9"/><g><path d="m89.567 141.774c-.001 0-.001 0-.002 0-4.216-.001-8.023-2.501-9.699-6.37-5.005-11.544-16.37-19.003-28.953-19.003-4.143 0-7.5-3.358-7.5-7.5s3.357-7.5 7.5-7.5c15.7 0 30.113 7.871 38.654 20.602 8.542-12.731 22.955-20.602 38.655-20.602 4.143 0 7.5 3.358 7.5 7.5s-3.357 7.5-7.5 7.5c-12.583 0-23.948 7.46-28.954 19.005-1.677 3.869-5.485 6.368-9.701 6.368z" fill="#463c41"/></g><g><path d="m158.625 98.526c-4.216 0-8.023-2.499-9.701-6.367-5.005-11.546-16.37-19.006-28.953-19.006-4.143 0-7.5-3.358-7.5-7.5s3.357-7.5 7.5-7.5c15.7 0 30.113 7.871 38.654 20.602 8.54-12.731 22.954-20.602 38.655-20.602 4.143 0 7.5 3.358 7.5 7.5s-3.357 7.5-7.5 7.5c-12.584 0-23.949 7.46-28.954 19.005-1.678 3.869-5.485 6.368-9.701 6.368z" fill="#463c41"/></g><g><path d="m197.28 160.837c-4.216 0-8.023-2.499-9.701-6.366-5.006-11.546-16.371-19.006-28.954-19.006-4.143 0-7.5-3.358-7.5-7.5s3.357-7.5 7.5-7.5c15.7 0 30.114 7.871 38.655 20.602 8.541-12.731 22.955-20.602 38.654-20.602 4.143 0 7.5 3.358 7.5 7.5s-3.357 7.5-7.5 7.5c-12.583 0-23.948 7.46-28.954 19.005-1.676 3.867-5.482 6.367-9.698 6.367-.001 0-.002 0-.002 0z" fill="#463c41"/></g><g><path d="m467 322.032v79.965l30-4.928v-79.965c-13.402 0-22.465 2.095-30 4.928z" fill="#6bbef6"/></g><path d="m436.087 40.333c0 22.275-8.058 39.333-30.333 39.333-3.452 0-6.803.566-10.001-.249-17.438-4.449-30.333-20.26-30.333-39.084s12.895-34.635 30.333-39.084c3.198-.815 6.549-.249 10.001-.249 22.275 0 30.333 17.058 30.333 39.333z" fill="#ffe282"/><path d="m405.754 0c-3.452 0-6.802.436-10 1.251 17.438 4.449 30.333 20.259 30.333 39.082s-12.895 34.633-30.333 39.082c3.198.816 6.548 1.251 10 1.251 22.275 0 40.333-18.058 40.333-40.333s-18.058-40.333-40.333-40.333z" fill="#fdda78"/><path d="m490.728 408.842c-13.401 0-16.193-9.679-23.728-6.846-15.754 5.922-24.819 15.074-52.836 15.074-41.418 0-41.418-20-82.837-20-41.417 0-41.417 20-82.833 20-41.415 0-41.415-20-82.831-20s-41.416 20-82.832 20-41.416-20-82.831-20v84.93c0 8.284 6.716 15 15 15h447c8.284 0 15-6.716 15-15z" fill="#90d8f9"/><g><path d="m467 401.997v80.003c0 8.284-6.716 15-15 15h30c8.284 0 15-6.716 15-15v-84.931c-13.402 0-22.465 2.095-30 4.928z" fill="#75cef9"/></g></g></svg>